<?xml version="1.0" encoding="utf-8"?>
<!-- Generator: Adobe Illustrator 24.3.0, SVG Export Plug-In . SVG Version: 6.00 Build 0)  -->
<svg version="1.1" id="Livello_1" xmlns="http://www.w3.org/2000/svg" xmlns:xlink="http://www.w3.org/1999/xlink" x="0px" y="0px"
	 viewBox="0 0 250 100" style="enable-background:new 0 0 250 100;" xml:space="preserve">
<style type="text/css">
	.st0{fill:#FFFFFF;}
	.st1{font-family:'EnglishTowne-Medium';}
	.st2{font-size:125.0542px;}
	.st3{font-size:66.804px;}
	.st4{font-size:50.068px;}
	.st5{font-size:58.5002px;}
	.st6{font-size:70.1534px;}
	.st7{font-size:51.6917px;}
	.st8{font-size:59.1162px;}
	.st9{font-size:49.2135px;}
	.st10{font-size:60.8912px;}
	.st11{font-size:60.427px;}
	.st12{font-size:78.7705px;}
</style>
<text transform="matrix(1 0 0 1 2.0386 89.1526)" class="st0 st1 st2">S</text>
<text transform="matrix(1 0 0 1 81.2827 44.1462)" class="st0 st1 st3">h</text>
<text transform="matrix(1 0 0 1 109.979 49.1008)" class="st0 st1 st4">e</text>
<text transform="matrix(1 0 0 1 125.9341 39.5173)" class="st0 st1 st5">r</text>
<text transform="matrix(1 0 0 1 144.8105 42.6609)" class="st0 st1 st6">l</text>
<text transform="matrix(1 0 0 1 201.8164 44.4929)" class="st0 st1 st7">c</text>
<text transform="matrix(1 0 0 1 217.8027 43.8659)" class="st0 st1 st8">k</text>
<g>
	<path class="st0" d="M165.94,90.28c-1.01-0.37-2.01-0.75-2.67-0.99c0.03-2.09,0.12-3.88,0.06-5.67c-0.14-4.4,0.7-8.56,2.52-12.6
		c1.67-3.71,2.95-7.59,4.44-11.38c0.53-1.35,1.14-2.68,1.76-4c0.58-1.23,0.89-2.33-0.99-2.67c0.25-0.88,0.61-1.67,0.68-2.48
		c0.11-1.3,0.61-1.84,1.84-1.32c1.99-2.22,0.63-4.55-1.79-6.28c-4.42-3.15-7.76-7.32-8.5-12.69c-1.3-9.37,2.36-15.85,10.97-20.28
		c6.79-3.5,13.8-2.75,19.91,1.5c6.89,4.8,9.57,12.01,7.67,20.13c-1.57,6.72-5.81,11.77-12.86,13.7c-1.96,0.54-4,0.79-6.02,1.05
		c-2.08,0.27-4.12,2.02-4.62,4.22c0.5,0.2,1.02,0.4,1.61,0.64c-0.31,0.75-0.63,1.44-0.89,2.15c-0.25,0.68-0.45,1.38-0.72,2.2
		c-1.17-0.43-1.82-0.28-2.04,1.15c-0.88,5.61-1.78,11.22-2.91,16.79c-0.98,4.84-2.4,9.54-5.65,13.5c-0.64,0.78-0.58,2.12-0.85,3.2
		C166.57,90.18,166.26,90.23,165.94,90.28z M165.05,30.27c0.52,1.11,1.41,3.39,2.59,5.51c3.88,6.95,12.04,9.77,19.32,7.81
		c2.91-0.78,5.82-1.58,8.07-4.09c2.1-2.35,3.87-4.71,4.63-7.79c0.74-3,1.02-6.11,0.07-8.98c-1.61-4.86-4.7-8.61-9.6-10.75
		c-6.82-2.98-13.2-2.7-19.1,2.07C166.28,17.88,164.13,22.86,165.05,30.27z"/>
</g>
<text transform="matrix(1 0 0 1 122.6099 76.4639)" class="st0 st1 st9">o</text>
<text transform="matrix(1 0 0 1 141.5273 92.1211)" class="st0 st1 st10">r</text>
<text transform="matrix(1 0 0 1 177.5576 92.3945)" class="st0 st1 st11">d</text>
<text transform="matrix(1 0 0 1 76.6704 90.6496)" class="st0 st1 st12">w</text>
<path class="st0" d="M218.78,82.32c0.04-0.03,0.07-0.04,0.1-0.07c0.79-0.73,1.59-1.44,2.35-2.2c0.91-0.91,1.57-1.98,1.77-3.28
	c0.12-0.77,0.12-1.53-0.16-2.27c-0.23-0.61-0.66-1-1.34-1.07c-0.9-0.09-1.7,0.18-2.43,0.69c-0.94,0.66-1.58,1.57-2.08,2.58
	c-0.49,0.99-0.78,2.04-1.09,3.09c-0.02,0.06,0.03,0.18,0.09,0.23c0.48,0.41,0.97,0.8,1.45,1.2
	C217.88,81.59,218.33,81.95,218.78,82.32z"/>
<path class="st0" d="M217.42,83.78c0.1-0.15,0.2-0.31,0.31-0.45c0.09-0.11,0.07-0.18-0.04-0.27c-0.35-0.27-0.69-0.56-1.04-0.84
	c-0.5-0.41-1-0.82-1.51-1.22c-0.06-0.05-0.19-0.08-0.24-0.05c-0.81,0.56-1.57,1.17-2.06,2.05c-0.25,0.46-0.4,0.94-0.33,1.47
	c0.16,1.19,1.14,1.81,2.28,1.44c0.19-0.06,0.38-0.14,0.56-0.24C216.22,85.24,216.87,84.57,217.42,83.78z"/>
<path class="st0" d="M218.64,84.91c-0.34-0.31-0.67-0.62-1.01-0.93c-0.36-0.34-0.73-0.68-1.09-1.02c-0.04-0.04-0.07-0.14-0.06-0.19
	c0.3-0.82,0.58-1.64,1.02-2.4c0.45-0.78,1-1.47,1.78-1.94c0.6-0.36,1.26-0.54,1.97-0.42c0.53,0.09,0.85,0.42,1.01,0.92
	c0.18,0.6,0.14,1.2,0.01,1.81c-0.22,1.02-0.8,1.83-1.57,2.51c-0.64,0.56-1.32,1.08-1.98,1.62C218.7,84.88,218.67,84.89,218.64,84.91
	z"/>
<path class="st0" d="M217.48,86c-0.48,0.59-1.03,1.09-1.73,1.39c-0.15,0.06-0.3,0.12-0.46,0.16c-0.92,0.24-1.67-0.3-1.73-1.26
	c-0.03-0.42,0.11-0.8,0.34-1.15c0.43-0.67,1.07-1.12,1.74-1.52c0.04-0.02,0.14,0.01,0.19,0.05c0.38,0.35,0.76,0.7,1.14,1.05
	c0.26,0.24,0.51,0.49,0.78,0.72c0.08,0.07,0.09,0.13,0.02,0.21C217.66,85.77,217.57,85.89,217.48,86z"/>
<path class="st0" d="M227.44,70.61c-0.45-0.1-0.89-0.2-1.34-0.31c-0.49-0.11-0.97-0.23-1.45-0.35c-0.06-0.01-0.13-0.08-0.14-0.13
	c-0.15-0.86-0.31-1.71-0.3-2.59c0-0.9,0.14-1.77,0.58-2.57c0.34-0.62,0.82-1.09,1.5-1.34c0.51-0.19,0.95-0.06,1.33,0.29
	c0.46,0.43,0.72,0.98,0.9,1.56c0.32,1,0.22,1.99-0.11,2.96c-0.28,0.81-0.6,1.59-0.91,2.39C227.48,70.55,227.46,70.58,227.44,70.61z"
	/>
<path class="st0" d="M226.81,72.15c-0.1,0.65-0.3,1.26-0.7,1.79c-0.08,0.11-0.18,0.22-0.28,0.32c-0.59,0.58-1.38,0.49-1.83-0.2
	c-0.2-0.3-0.26-0.65-0.24-1c0.04-0.69,0.32-1.3,0.65-1.88c0.02-0.03,0.11-0.05,0.16-0.04c0.43,0.09,0.87,0.2,1.3,0.3
	c0.3,0.07,0.59,0.14,0.89,0.21c0.09,0.02,0.13,0.06,0.11,0.15C226.84,71.9,226.83,72.03,226.81,72.15z"/>
<path class="st0" d="M231.27,57.21c-0.43-0.14-0.87-0.29-1.3-0.43c-0.47-0.16-0.95-0.32-1.42-0.48c-0.05-0.02-0.12-0.09-0.13-0.15
	c-0.07-0.87-0.15-1.74-0.06-2.61c0.09-0.89,0.3-1.75,0.82-2.51c0.4-0.58,0.92-1.01,1.61-1.2c0.52-0.14,0.95,0.03,1.3,0.42
	c0.42,0.47,0.62,1.04,0.75,1.64c0.22,1.02,0.03,2-0.39,2.94c-0.35,0.78-0.75,1.53-1.13,2.29C231.31,57.16,231.29,57.18,231.27,57.21
	z"/>
<path class="st0" d="M230.68,58.68c-0.19,0.74-0.48,1.42-1,1.99c-0.11,0.12-0.23,0.23-0.35,0.33c-0.74,0.6-1.64,0.42-2.1-0.43
	c-0.2-0.37-0.23-0.77-0.17-1.18c0.12-0.79,0.51-1.46,0.95-2.11c0.03-0.04,0.13-0.05,0.19-0.03c0.49,0.16,0.98,0.32,1.47,0.48
	c0.34,0.11,0.67,0.23,1.01,0.33c0.11,0.03,0.14,0.08,0.11,0.19C230.74,58.4,230.71,58.54,230.68,58.68z"/>
<path class="st0" d="M207.28,76.7c-0.06,0.17-0.12,0.34-0.17,0.51c-0.27,1.07-0.54,2.15-0.8,3.22c-0.04,0.18-0.15,0.4-0.08,0.53
	c0.07,0.13,0.31,0.18,0.48,0.25c0.95,0.36,1.91,0.72,2.86,1.08c0.11,0.04,0.18,0.04,0.27-0.05c0.31-0.34,0.63-0.67,0.94-1.01
	c0.9-1,1.68-2.07,2.11-3.37c0.49-1.47,0.38-2.95-0.9-4.44c-1.63,0.07-2.89,0.76-3.82,1.87c-0.23,0.27-0.42,0.57-0.63,0.86"/>
<path class="st0" d="M208.78,86.22c0.38-0.85,0.49-1.75,0.56-2.65c-1.09-0.42-2.18-0.83-3.26-1.25c-0.12-0.04-0.17-0.01-0.22,0.1
	c-0.21,0.5-0.45,0.99-0.61,1.5c-0.27,0.83-0.35,1.69-0.1,2.54c0.14,0.5,0.42,0.89,0.93,1.08c0.7,0.26,1.55,0.07,2.09-0.51
	C208.4,86.78,208.58,86.49,208.78,86.22z"/>
<path class="st0" d="M210.39,79.23c0.21-0.19,0.42-0.38,0.64-0.55c0.92-0.69,2.01-1,3.29-0.75c0.72,1.39,0.53,2.55-0.11,3.6
	c-0.57,0.92-1.37,1.61-2.24,2.22c-0.3,0.21-0.61,0.4-0.91,0.61c-0.08,0.06-0.14,0.04-0.22-0.01c-0.67-0.45-1.35-0.9-2.02-1.36
	c-0.12-0.08-0.3-0.16-0.33-0.28c-0.03-0.11,0.09-0.26,0.16-0.39c0.4-0.78,0.8-1.57,1.2-2.35c0.07-0.13,0.15-0.25,0.22-0.37
	C210.18,79.48,210.29,79.35,210.39,79.23z"/>
<path class="st0" d="M209.53,87.24c-0.21,0.18-0.4,0.37-0.62,0.52c-0.52,0.35-1.21,0.35-1.71,0.02c-0.36-0.24-0.5-0.59-0.52-1.01
	c-0.04-0.71,0.18-1.35,0.54-1.95c0.22-0.37,0.49-0.7,0.74-1.05c0.05-0.07,0.1-0.09,0.19-0.03c0.77,0.52,1.54,1.03,2.3,1.55
	C210.22,85.98,209.97,86.65,209.53,87.24z"/>
<path class="st0" d="M218.05,67.61c0.17-0.23,0.32-0.47,0.5-0.68c0.74-0.88,1.74-1.43,3.04-1.48c1.01,1.19,1.1,2.36,0.71,3.53
	c-0.34,1.03-0.96,1.88-1.68,2.67c-0.24,0.27-0.5,0.53-0.75,0.8c-0.07,0.07-0.13,0.07-0.21,0.04c-0.76-0.29-1.52-0.57-2.27-0.86
	c-0.14-0.05-0.33-0.09-0.38-0.2c-0.05-0.1,0.03-0.28,0.06-0.42c0.21-0.85,0.42-1.71,0.64-2.56c0.04-0.14,0.09-0.27,0.13-0.41
	C217.91,67.91,217.98,67.76,218.05,67.61z"/>
<path class="st0" d="M219.02,75.62c-0.16,0.22-0.31,0.45-0.49,0.65c-0.43,0.46-1.1,0.61-1.66,0.4c-0.41-0.15-0.62-0.47-0.74-0.86
	c-0.2-0.68-0.13-1.36,0.08-2.02c0.13-0.41,0.32-0.79,0.49-1.19c0.03-0.08,0.08-0.11,0.17-0.08c0.86,0.33,1.73,0.66,2.59,0.99
	C219.41,74.23,219.33,74.94,219.02,75.62z"/>
<path class="st0" d="M222.11,54.5c0.14-0.24,0.27-0.5,0.43-0.73c0.65-0.95,1.59-1.59,2.87-1.78c1.12,1.08,1.33,2.24,1.06,3.44
	c-0.24,1.06-0.77,1.97-1.4,2.83c-0.22,0.29-0.44,0.58-0.66,0.87c-0.06,0.08-0.12,0.09-0.21,0.06c-0.78-0.21-1.57-0.42-2.35-0.63
	c-0.14-0.04-0.33-0.06-0.4-0.16c-0.06-0.09,0-0.28,0.02-0.42c0.12-0.87,0.25-1.74,0.38-2.61c0.02-0.14,0.06-0.28,0.09-0.42
	C222,54.81,222.05,54.65,222.11,54.5z"/>
<path class="st0" d="M223.88,62.37c-0.14,0.23-0.26,0.48-0.42,0.69c-0.38,0.5-1.04,0.72-1.61,0.57c-0.42-0.11-0.67-0.4-0.82-0.78
	c-0.26-0.66-0.27-1.34-0.12-2.02c0.09-0.42,0.24-0.82,0.37-1.23c0.03-0.09,0.07-0.12,0.16-0.09c0.89,0.24,1.79,0.48,2.68,0.73
	C224.13,60.95,224.11,61.67,223.88,62.37z"/>
</svg>
